<?xml version="1.0" encoding="UTF-8"?><svg id="Layer_1" xmlns="http://www.w3.org/2000/svg" viewBox="0 0 999.864 1034"><defs><style>.cls-1{letter-spacing:.416em;}.cls-2,.cls-3{fill:#fbcc34;}.cls-4{letter-spacing:.49em;}.cls-5{letter-spacing:.49em;}.cls-6{letter-spacing:.405em;}.cls-3{font-family:Inter-Black, Inter;font-size:50px;}</style></defs><path class="cls-2" d="M942.5,813c-90,134-265.78,221-425.25,221C231.58,1034,0,802.53,0,517S231.58,0,517.25,0c66.01,0,129.12,12.36,187.16,34.88-51.76-17.74-107.33-27.38-165.16-27.38C259.66,7.5,33,232.7,33,510.5s226.66,503,506.25,503c148.65,0,305.25-80.5,403.25-200.5Z"/><g><path class="cls-2" d="M396.5,410c-2-34-9.34-53.1-41-68-34-16-53-12-105-14l-148,1s5.64,125.9,5.07,191h82.93v-9c1.33-.21,38.12-3.15,73.92,9h102.61c-17.63-9.77-36.07-15.55-50.53-16,49.73-14.78,83.89-27.93,80-94Zm-108,71c-37,26-98,19-98,19l.09-158.64c2.4-.2,5.01-.36,7.82-.47,2.8-.1,7.01-.15,12.63-.15,34.22,0,62.48,2.37,76.4,16.99,43.06,45.27,18.23,111.2,1.06,123.27Zm43.96,129c.02,.66,.03,1.33,.04,2,.45,51.92-22.27,87.77-55,97-39,11-85.45,7.12-87,7v-106H105.93c-1.15,57.35-2.43,118-2.43,118l162.74,.37c54.6,0,96.42-10.75,125.46-32.27,26.84-19.9,33.8-49.81,34.7-86.1h-93.94Z"/><path class="cls-2" d="M601.38,520h-93l-41.25-149.41c-.65-2.36-1.49-4.66-2.51-6.88l-14.99-32.7,.01-.01h102.62q.01,0,.01,.01l-.28,8.7c-.03,.85,.07,1.7,.3,2.51l49.09,177.78Z"/><path class="cls-2" d="M669.9,732.99s0,.01-.01,.01h-102.7l-33.96-123h93l26.09,94.49,2.28,8.26c.83,3.01,2.35,5.79,4.43,8.12l9.09,10.13,1.78,1.99Z"/><path class="cls-2" d="M831.38,520h-93l-11.3-40.92-6.66-24.14-23.29-84.35c-.65-2.36-1.49-4.66-2.51-6.88l-14.99-32.7,.01-.01h102.62q.01,0,.01,.01l-.28,8.7c-.03,.85,.07,1.7,.3,2.51l49.09,177.78Z"/><path class="cls-2" d="M899.9,732.99s0,.01-.01,.01h-102.7l-33.96-123h93l25.58,92.66,2.79,10.09c.83,3.01,2.35,5.79,4.43,8.12l9.09,10.13,1.78,1.99Z"/><path class="cls-2" d="M920.53,610c-16.35,60.25-29.04,106.99-29.03,107l6.89,13.82c.05,.08-.01,.18-.1,.18h-27.58c-.09,0-.15-.1-.1-.18l6.2-9.84c.01-.01,.01-.02,.01-.03,0,0,1.83-6.69,4.99-18.29,5.37-19.66,14.58-53.42,25.29-92.66h13.43Z"/><path class="cls-2" d="M999.85,333.18l-6.35,13.82c-.01,.01-24.52,84.57-48.53,173h-13.31c24.89-91.18,47.85-178.99,47.84-179l-2.54-7.82c-.019-.038-.018-.08-.002-.114,.018-.038,.054-.066,.102-.066h22.69c.09,0,.14,.1,.1,.18Z"/><path class="cls-2" d="M691.53,610c-16.35,60.25-29.04,106.99-29.03,107l6.89,13.82c.05,.08-.01,.18-.1,.18h-27.58c-.09,0-.15-.1-.1-.18l6.2-9.84c.01-.01,.01-.02,.01-.03,0,0,1.63-5.99,4.5-16.46,5.27-19.35,14.73-54,25.78-94.49h13.43Z"/><path class="cls-2" d="M770.85,333.18l-7.84,13.59q-.01,.01-.01,.02s-16.38,60.33-35.92,132.29c-3.62,13.34-7.35,27.08-11.11,40.92h-13.31c6.09-22.3,12.12-44.4,17.76-65.06,17.42-63.82,31.09-113.93,31.08-113.94l-3.54-7.82c-.04-.08,.01-.18,.1-.18h22.69c.09,0,.14,.1,.1,.18Z"/></g><text class="cls-3" transform="translate(112.687 586.132)"><tspan class="cls-5" x="0" y="0">BIG </tspan><tspan class="cls-6" x="194.518" y="0">W</tspan><tspan class="cls-1" x="269.445" y="0">A</tspan><tspan class="cls-4" x="330.024" y="0">Y TRADING</tspan></text></svg>